:SAMPLES-PER-SECOND 30
:FULLY-SPECIFIED
:DEGREES
488
root  4.83486 39.5971 0.569107 -175.755 -11.852 178.084
RightUpLeg  -6.31255 -31.3042 -5.037
RightLeg  18.1126 -16.5614 -2.00533
RightFoot  -8.26291 -0.140624 3.14359
RightToes  -6.40286e-010 0 -3.6325e-017
Spine  16.8678 5.51234 16.4464
Spine1  4.4037 10.9446 -13.7209
HEad  -29.4844 -30.1227 6.83484
LeftShoulder1  0.017897 3.45513 -31.0965
LeftArm  7.00784 8.10745 -43.1092
LeftForeArm  25.384 -16.9588 -6.42937
LeftHand  -0.0276862 6.8931 0.74282
RightShoulder  0.259923 -2.63432 24.5196
RightArm  -2.87487 44.4852 38.9992
RightForeArm  -6.63671 33.047 7.6854
RightHand  -0.799997 10.9276 -6.09637
LeftUpLeg  -16.9829 -6.53056 -0.855408
LeftLeg  11.3727 -12.4262 -1.11408
LeftFoot  4.16343 -0.61554 4.33368
LeftToes  1.32783e-010 1.73515e-011 1.59258e-011
489
root  4.7596 39.6056 0.547215 -175.57 -11.5421 177.926
RightUpLeg  -6.0938 -29.9046 -5.37769
RightLeg  17.4884 -17.727 -1.65017
RightFoot  -8.36818 -0.131698 2.88209
RightToes  -6.40286e-010 0 -3.6325e-017
Spine  17.4706 5.63155 17.2024
Spine1  4.1843 11.4362 -14.6134
HEad  -31.0355 -30.9297 7.59641
LeftShoulder1  0.0788834 3.28915 -30.5696
LeftArm  7.96351 7.69659 -43.7245
LeftForeArm  25.0449 -17.1358 -6.42956
LeftHand  -0.0363113 7.20525 0.180797
RightShoulder  0.239051 -2.73138 25.9513
RightArm  -10.1204 41.3659 37.5233
RightForeArm  -0.466611 41.476 10.0389
RightHand  -0.596543 9.80051 -4.96727
LeftUpLeg  -16.8276 -5.98218 -1.22511
LeftLeg  10.9452 -12.6813 -0.969214
LeftFoot  4.21785 -0.635892 4.46456
LeftToes  1.32783e-010 1.73515e-011 1.59258e-011
490
root  4.68948 39.618 0.515337 -174.969 -11.363 177.612
RightUpLeg  -6.20504 -28.5235 -5.70994
RightLeg  16.6785 -19.0872 -1.15349
RightFoot  -8.51862 -0.121375 2.57957
RightToes  -6.40286e-010 0 -3.6325e-017
Spine  17.249 5.80911 16.5125
Spine1  4.08778 11.2611 -13.6615
HEad  -31.7069 -30.1931 6.80985
LeftShoulder1  0.0573973 3.34949 -31.1568
LeftArm  9.91548 8.7533 -43.8062
LeftForeArm  23.1117 -19.4925 -5.18233
LeftHand  -0.0143513 6.8113 1.69653
RightShoulder  0.0517588 -3.3194 26.4693
RightArm  -16.9849 39.8847 38.5653
RightForeArm  5.27052 51.5429 13.7634
RightHand  -0.416755 6.59778 -4.32393
LeftUpLeg  -16.9992 -5.23679 -1.75026
LeftLeg  10.3099 -13.3178 -0.854633
LeftFoot  4.40505 -0.642726 4.45223
LeftToes  1.32783e-010 1.73515e-011 1.59258e-011
491
root  4.60741 39.6347 0.480732 -174.467 -11.0734 177.462
RightUpLeg  -6.48167 -27.2467 -5.74918
RightLeg  16.1404 -20.1135 -1.0563
RightFoot  -8.52854 -0.12011 2.53279
RightToes  -6.40286e-010 0 -3.6325e-017
Spine  16.7553 5.6169 15.9787
Spine1  4.09979 10.7958 -13.1309
HEad  -31.3425 -29.0615 5.63011
LeftShoulder1  -0.0103443 3.53152 -31.5002
LeftArm  11.5214 9.74072 -43.718
LeftForeArm  20.6382 -21.5122 -4.3131
LeftHand  0.0266786 6.9615 4.30659
RightShoulder  0.0386815 -3.35561 26.1684
RightArm  -20.1555 40.2458 41.0857
RightForeArm  10.7051 55.6316 15.6245
RightHand  -0.218843 4.58912 -2.85888
LeftUpLeg  -17.1793 -4.57938 -2.07117
LeftLeg  9.83698 -13.7247 -0.790116
LeftFoot  4.48688 -0.633705 4.3596
LeftToes  1.32783e-010 1.73515e-011 1.59258e-011
492
root  4.48973 39.6674 0.450609 -174.417 -10.1723 177.178
RightUpLeg  -6.52644 -26.7053 -6.10974
RightLeg  15.8849 -19.7007 -1.13556
RightFoot  -8.33812 -0.129544 2.77901
RightToes  -6.40286e-010 0 -3.6325e-017
Spine  16.6177 5.55317 15.9962
Spine1  4.20973 10.8957 -13.8198
HEad  -30.3337 -28.2015 6.12114
LeftShoulder1  -0.0117116 3.53502 -31.4148
LeftArm  11.4664 9.07961 -43.7357
LeftForeArm  18.5971 -21.7771 -4.31827
LeftHand  0.014048 6.7346 4.0927
RightShoulder  0.163594 -2.96395 25.6168
RightArm  -19.5977 39.7794 42.5722
RightForeArm  7.72464 51.5196 13.7102
RightHand  -0.253364 5.27522 -3.07888
LeftUpLeg  -16.6187 -3.69842 -2.63489
LeftLeg  9.00959 -13.7884 -0.547392
LeftFoot  4.76588 -0.677255 4.57975
LeftToes  1.32783e-010 1.73515e-011 1.59258e-011
493
root  4.3923 39.7134 0.423203 -174.609 -9.3539 177.177
RightUpLeg  -6.11781 -25.2714 -6.36441
RightLeg  15.2638 -20.3371 -0.98011
RightFoot  -7.93225 -0.139314 2.87246
RightToes  -6.40286e-010 0 -3.6325e-017
Spine  16.7111 5.75733 15.7515
Spine1  3.92622 11.0445 -13.7479
HEad  -28.9938 -28.1409 6.182
LeftShoulder1  -0.0026327 3.51084 -31.3869
LeftArm  12.4169 7.87536 -44.0128
LeftForeArm  19.187 -21.535 -4.3956
LeftHand  -0.00266333 7.14572 2.10623
RightShoulder  0.196236 -2.86992 26.1477
RightArm  -15.1335 40.3279 41.5034
RightForeArm  3.14819 42.0059 9.91101
RightHand  -0.320997 7.7677 -3.18666
LeftUpLeg  -15.9423 -2.68395 -2.8353
LeftLeg  8.3022 -13.948 -0.472108
LeftFoot  4.88665 -0.6887 4.61908
LeftToes  1.32783e-010 1.73515e-011 1.59258e-011
494
root  4.27226 39.7455 0.40478 -174.748 -8.65906 177.107
RightUpLeg  -5.71167 -24.1959 -6.7884
RightLeg  14.6609 -20.6183 -0.636133
RightFoot  -7.63451 -0.142562 2.80187
RightToes  -6.40286e-010 0 -3.6325e-017
Spine  16.7699 5.96693 15.705
Spine1  4.00655 11.2004 -13.3046
HEad  -28.554 -28.148 5.46758
LeftShoulder1  -0.0148152 3.54326 -31.5352
LeftArm  13.3261 6.65453 -44.5981
LeftForeArm  20.2417 -21.8539 -4.2356
LeftHand  -0.0275731 6.44259 0.877646
RightShoulder  0.216365 -2.81269 26.4641
RightArm  -11.953 42.0576 39.9005
RightForeArm  1.5598 35.7034 7.92616
RightHand  -0.422156 9.69705 -3.63401
LeftUpLeg  -15.3705 -2.1765 -3.1112
LeftLeg  7.69414 -13.7856 -0.30291
LeftFoot  5.0395 -0.728787 4.84777
LeftToes  1.32783e-010 1.73515e-011 1.59258e-011
495
root  4.17459 39.7529 0.411305 -174.578 -8.12975 177.101
RightUpLeg  -5.82629 -23.6599 -6.94452
RightLeg  14.3333 -20.636 -0.339646
RightFoot  -7.56071 -0.144818 2.82485
RightToes  -6.40286e-010 0 -3.6325e-017
Spine  17.1685 6.09973 16.2654
Spine1  3.78902 11.5121 -13.598
HEad  -29.4075 -28.0278 5.43702
LeftShoulder1  -0.0211869 3.56034 -31.2268
LeftArm  14.7523 5.57525 -45.0693
LeftForeArm  20.5117 -23.1243 -4.08021
LeftHand  -0.0226358 5.89762 1.68122
RightShoulder  0.278484 -2.60726 25.7865
RightArm  -15.6384 40.6783 38.7212
RightForeArm  4.04083 42.0703 9.96033
RightHand  -0.416873 8.68845 -3.87672
LeftUpLeg  -15.4154 -1.74543 -3.17522
LeftLeg  7.47276 -13.7479 -0.4274
LeftFoot  5.01028 -0.720555 4.80006
LeftToes  1.32783e-010 1.73515e-011 1.59258e-011
496
root  4.06112 39.7622 0.390758 -174.215 -7.86644 176.924
RightUpLeg  -6.12752 -23.8656 -7.26497
RightLeg  14.1996 -20.1958 -0.0748922
RightFoot  -7.46295 -0.146613 2.84181
RightToes  -6.40286e-010 0 -3.6325e-017
Spine  17.1818 5.91778 16.6093
Spine1  3.52318 11.4343 -14.1234
HEad  -30.6382 -27.0777 5.80797
LeftShoulder1  0.0222961 3.44386 -30.9004
LeftArm  12.2368 5.98807 -44.9095
LeftForeArm  23.2486 -26.0731 -4.33661
LeftHand  -0.0223673 6.13243 1.39849
RightShoulder  0.138405 -3.0434 25.7292
RightArm  -19.9815 40.0851 38.748
RightForeArm  7.60492 51.5919 13.6111
RightHand  -0.362145 5.37533 -4.10328
LeftUpLeg  -15.534 -1.53213 -3.45436
LeftLeg  7.09358 -13.6634 -0.524064
LeftFoot  5.19193 -0.758235 4.99841
LeftToes  1.32783e-010 1.73515e-011 1.59258e-011
497
root  3.97928 39.7886 0.346503 -174.015 -7.37355 176.799
RightUpLeg  -6.22292 -23.8475 -7.41553
RightLeg  13.8419 -19.7759 0.0344904
RightFoot  -7.27087 -0.148514 2.85654
RightToes  -6.40286e-010 0 -3.6325e-017
Spine  17.1439 5.69689 16.0703
Spine1  3.07647 10.9981 -13.8267
HEad  -30.223 -25.9586 5.73066
LeftShoulder1  0.0687777 3.31945 -31.2016
LeftArm  9.38622 7.06267 -44.0878
LeftForeArm  24.5834 -28.7817 -4.88369
LeftHand  -0.0293232 5.36763 2.0582
RightShoulder  0.0834502 -3.21297 25.5429
RightArm  -21.7597 41.8934 39.6033
RightForeArm  12.9319 55.4464 15.3325
RightHand  -0.0972557 3.47984 -1.57365
LeftUpLeg  -15.2868 -1.27865 -3.68527
LeftLeg  6.39411 -13.4435 -0.34606
LeftFoot  5.37607 -0.761677 4.9581
LeftToes  1.32783e-010 1.73515e-011 1.59258e-011
498
root  3.90451 39.8211 0.297208 -174.145 -6.319 176.674
RightUpLeg  -6.17276 -23.5153 -7.5162
RightLeg  13.5659 -19.0317 -0.163246
RightFoot  -7.06502 -0.160032 2.99592
RightToes  -6.40286e-010 0 -3.6325e-017
Spine  17.0219 5.74153 15.6655
Spine1  3.15131 11.0242 -13.8859
HEad  -28.9187 -25.3039 5.66053
LeftShoulder1  0.0916484 3.25773 -31.12
LeftArm  8.84578 6.71775 -43.8937
LeftForeArm  22.8056 -29.4489 -5.13717
LeftHand  -0.0334568 5.05399 3.66452
RightShoulder  0.194187 -2.84268 24.3453
RightArm  -20.0836 43.0615 40.091
RightForeArm  8.65853 51.4918 13.5503
RightHand  -0.0651053 3.75992 -1.08299
LeftUpLeg  -14.6055 -0.716319 -3.82291
LeftLeg  5.6022 -12.9065 -0.270715
LeftFoot  5.47791 -0.764865 4.94506
LeftToes  1.32783e-010 1.73515e-011 1.59258e-011
499
root  3.833 39.8553 0.232926 -174.282 -4.84236 176.591
RightUpLeg  -6.21262 -23.1533 -7.57533
RightLeg  13.3064 -17.9543 -0.266891
RightFoot  -6.80091 -0.165006 2.99467
RightToes  -6.40286e-010 0 -3.6325e-017
Spine  16.6953 6.02694 15.281
Spine1  3.442 11.3289 -14.042
HEad  -27.6697 -25.2583 5.88945
LeftShoulder1  0.0677588 3.3206 -30.9195
LeftArm  8.39103 5.66745 -44.0093
LeftForeArm  22.3446 -29.4542 -5.16438
LeftHand  -0.025885 5.41768 3.17817
RightShoulder  0.295426 -2.50584 24.1384
RightArm  -14.5726 43.1369 39.9689
RightForeArm  3.15889 44.7 10.8924
RightHand  -0.221629 5.0677 -2.71109
LeftUpLeg  -13.8884 0.0845841 -3.74803
LeftLeg  4.82079 -12.1396 -0.461094
LeftFoot  5.45783 -0.749201 4.84574
LeftToes  1.32783e-010 1.73515e-011 1.59258e-011
500
root  3.75179 39.881 0.181566 -174.518 -3.26854 176.528
RightUpLeg  -6.17312 -22.8527 -7.70573
RightLeg  13.0331 -16.7612 -0.261616
RightFoot  -6.56127 -0.168059 2.95693
RightToes  -6.40286e-010 0 -3.6325e-017
Spine  16.8615 6.25445 15.0224
Spine1  3.38537 11.5622 -13.9947
HEad  -26.8862 -25.7747 5.64768
LeftShoulder1  -0.0056389 3.519 -31.2682
LeftArm  8.86478 4.49811 -43.8015
LeftForeArm  22.8832 -29.4795 -5.14029
LeftHand  -0.0210903 5.71129 2.42497
RightShoulder  0.290067 -2.54756 24.9601
RightArm  -8.71406 44.3195 39.7957
RightForeArm  2.19749 38.4589 8.74921
RightHand  -0.392933 7.4548 -3.95202
LeftUpLeg  -13.2496 0.381578 -3.77563
LeftLeg  4.3756 -10.7301 -0.345413
LeftFoot  5.3335 -0.734578 4.78854
LeftToes  1.32783e-010 1.73515e-011 1.59258e-011
